<?xml version="1.0" standalone="no"?>
<!DOCTYPE svg PUBLIC "-//W3C//DTD SVG 20010904//EN"
 "http://www.w3.org/TR/2001/REC-SVG-20010904/DTD/svg10.dtd">
<svg version="1.0" xmlns="http://www.w3.org/2000/svg"
 width="295.000000pt" height="365.000000pt" viewBox="0 0 295.000000 365.000000"
 preserveAspectRatio="xMidYMid meet">

<g transform="translate(0.000000,365.000000) scale(0.100000,-0.100000)"
fill="#000000" stroke="none">
<path d="M1408 3536 c-26 -7 -63 -25 -83 -40 -38 -29 -90 -95 -100 -126 -5
-17 -8 -17 -55 1 -160 61 -341 -41 -374 -210 -5 -30 -2 -40 26 -70 l33 -36
-32 29 -33 30 0 -46 0 -46 -37 14 c-46 16 -134 18 -185 4 -59 -17 -132 -81
-162 -143 l-27 -54 1 -719 c0 -395 5 -773 10 -839 33 -389 98 -696 183 -860
45 -87 156 -194 248 -239 129 -63 308 -96 521 -96 271 0 462 58 618 185 140
115 199 209 596 943 157 290 292 564 304 616 20 92 -19 210 -91 270 -118 99
-277 100 -387 1 -39 -35 -65 -75 -123 -187 l-74 -142 -5 615 -5 614 -27 50
c-14 28 -39 62 -55 76 -72 68 -183 94 -272 65 -27 -9 -52 -16 -55 -16 -3 0 -6
35 -6 78 0 96 -27 158 -93 219 -71 65 -160 86 -259 59z m129 -141 c38 -16 58
-35 73 -73 6 -14 10 -222 10 -524 0 -384 3 -505 13 -517 9 -12 9 -13 0 -7 -10
6 -13 -33 -13 -182 0 -176 1 -191 21 -216 24 -30 63 -34 97 -10 l22 15 0 532
c0 500 2 534 19 574 22 47 51 70 102 79 18 4 45 16 59 28 l25 21 -19 -23 c-11
-12 -17 -23 -15 -25 2 -1 17 -9 33 -17 16 -8 38 -28 50 -43 21 -28 21 -35 24
-746 l2 -717 -91 -13 c-219 -31 -396 -128 -514 -281 -52 -67 -105 -176 -105
-215 0 -25 39 -75 59 -75 39 0 61 23 101 106 80 165 220 271 416 314 49 11
117 20 152 20 35 0 72 5 82 10 19 10 61 86 212 380 106 207 104 204 151 230
97 55 218 -18 219 -132 1 -36 -21 -86 -132 -303 -74 -143 -187 -357 -253 -475
-66 -118 -149 -269 -185 -335 -146 -272 -251 -395 -396 -465 -129 -62 -199
-74 -431 -73 -228 0 -302 12 -420 67 -198 92 -283 269 -344 721 -36 259 -41
420 -41 1112 0 744 -2 714 63 753 41 25 103 25 144 0 64 -38 63 -34 63 -510 0
-342 3 -430 13 -424 8 6 8 3 -2 -9 -15 -19 -9 -58 15 -81 19 -20 64 -21 90 -2
18 14 19 35 24 653 l5 638 23 33 c62 85 177 80 232 -10 19 -32 20 -52 20 -660
0 -615 0 -628 20 -648 29 -29 74 -26 99 6 21 26 21 34 21 729 l0 702 23 34
c23 35 78 69 110 69 10 0 34 -7 54 -15z m183 -528 c0 -2 -12 -14 -27 -28 l-28
-24 24 28 c23 25 31 32 31 24z m-410 -262 c13 -14 21 -25 18 -25 -2 0 -15 11
-28 25 -13 14 -21 25 -18 25 2 0 15 -11 28 -25z m10 -138 c0 -2 -12 -14 -27
-28 l-28 -24 24 28 c23 25 31 32 31 24z m390 -262 c13 -14 21 -25 18 -25 -2 0
-15 11 -28 25 -13 14 -21 25 -18 25 2 0 15 -11 28 -25z m400 -400 c13 -14 21
-25 18 -25 -2 0 -15 11 -28 25 -13 14 -21 25 -18 25 2 0 15 -11 28 -25z m80
-80 c13 -14 21 -25 18 -25 -2 0 -15 11 -28 25 -13 14 -21 25 -18 25 2 0 15
-11 28 -25z m-1750 -138 c0 -2 -12 -14 -27 -28 l-28 -24 24 28 c23 25 31 32
31 24z"/>
</g>
</svg>
