<?xml version="1.0" standalone="no"?>
<!DOCTYPE svg PUBLIC "-//W3C//DTD SVG 20010904//EN"
 "http://www.w3.org/TR/2001/REC-SVG-20010904/DTD/svg10.dtd">
<svg version="1.0" xmlns="http://www.w3.org/2000/svg"
 width="348.000000pt" height="383.000000pt" viewBox="0 0 348.000000 383.000000"
 preserveAspectRatio="xMidYMid meet">

<g transform="translate(0.000000,383.000000) scale(0.100000,-0.100000)"
fill="#000000" stroke="none">
<path d="M1960 3017 c-74 -17 -113 -40 -165 -94 l-44 -45 -51 31 c-130 80
-296 58 -398 -53 l-39 -43 -38 28 c-152 114 -381 54 -468 -121 -22 -45 -22
-50 -22 -510 0 -461 5 -553 41 -830 14 -110 22 -161 59 -350 19 -97 72 -262
110 -341 32 -69 113 -171 179 -227 160 -135 452 -203 816 -189 417 16 664 149
874 470 53 82 196 382 240 502 93 259 133 517 89 569 -17 20 -17 20 1 6 19
-15 19 -13 12 52 -7 68 -43 194 -72 250 -43 83 -134 177 -208 215 -17 9 -34
21 -38 27 -4 6 -8 90 -8 187 0 206 -9 244 -77 319 -52 58 -99 85 -174 101 -50
11 -51 11 -87 -22 l-37 -34 30 34 30 34 -40 -7 c-55 -9 -93 -25 -142 -58 l-42
-29 -36 39 c-40 44 -128 88 -195 96 -25 3 -70 -1 -100 -7z m55 -67 c33 -33 57
-60 54 -60 -2 0 -31 27 -64 60 -33 33 -57 60 -54 60 2 0 31 -27 64 -60z m100
-89 c16 -9 43 -35 58 -57 27 -39 29 -47 28 -144 0 -56 -3 -105 -6 -108 -3 -3
-22 0 -42 6 -35 11 -40 9 -68 -16 l-30 -27 23 26 c28 32 22 37 -49 45 -48 5
-86 0 -156 -21 -23 -7 -23 -6 -23 84 0 103 12 141 58 188 53 52 139 62 207 24z
m315 26 c0 -2 -10 -12 -22 -23 l-23 -19 19 23 c18 21 26 27 26 19z m141 -58
c41 -14 94 -62 108 -98 14 -35 19 -321 6 -321 -11 0 -152 38 -267 71 l-78 22
0 86 c0 47 5 102 10 121 14 50 58 99 105 115 49 17 73 18 116 4z m-940 -44
c64 -41 79 -90 79 -246 0 -91 -5 -147 -15 -174 -19 -53 -19 -124 1 -182 19
-54 15 -143 -7 -187 -8 -16 -31 -43 -52 -60 -35 -28 -46 -31 -107 -31 -65 0
-71 2 -105 35 -66 63 -65 56 -65 415 0 350 2 367 53 413 60 55 150 62 218 17z
m719 22 c0 -2 -10 -12 -22 -23 l-23 -19 19 23 c18 21 26 27 26 19z m-1230 -67
c22 -11 52 -39 67 -62 l28 -41 3 -226 c4 -256 -2 -295 -55 -346 -65 -63 -164
-66 -233 -9 -58 49 -60 60 -60 331 0 235 1 250 21 283 52 84 145 113 229 70z
m1140 -15 c17 11 11 -1 -12 -21 -12 -10 -18 -13 -14 -6 4 7 2 21 -6 30 -12 15
-11 16 4 4 9 -8 22 -11 28 -7z m61 -82 c13 -16 12 -17 -3 -4 -10 7 -18 15 -18
17 0 8 8 3 21 -13z m-304 -171 c-15 -16 -1 -22 261 -96 152 -43 295 -84 317
-91 107 -34 107 -33 10 67 l-90 93 100 -96 c55 -54 111 -100 125 -104 51 -15
131 -68 165 -109 81 -100 124 -260 111 -421 -15 -206 -82 -423 -212 -694 -174
-362 -352 -523 -654 -588 -118 -25 -474 -25 -603 0 -227 45 -373 135 -456 281
-103 179 -184 593 -216 1103 l-7 102 54 -21 c82 -33 182 -29 261 10 56 28 63
29 71 14 5 -9 29 -37 52 -62 l42 -45 24 20 23 20 -18 -21 c-22 -26 -13 -35 61
-59 107 -35 242 -3 318 76 l27 28 38 -30 c67 -53 125 -73 212 -73 67 0 77 -2
72 -15 -29 -74 -40 -147 -40 -276 0 -156 12 -207 71 -305 56 -94 148 -180 191
-180 15 0 37 10 50 22 38 36 30 63 -44 136 -93 93 -126 166 -131 288 -5 112
16 228 61 334 31 73 33 75 69 78 59 5 87 61 53 109 -10 15 -48 30 -132 53
-355 96 -346 93 -391 144 -81 92 -34 241 88 277 22 7 47 20 56 31 10 10 19 18
22 18 3 0 -2 -8 -11 -18z m-227 -225 c0 -2 -10 -12 -22 -23 l-23 -19 19 23
c18 21 26 27 26 19z m208 -304 c41 -10 59 -19 50 -24 -20 -11 -99 9 -128 32
-19 16 -20 19 -6 15 10 -4 48 -14 84 -23z m1067 -43 c27 -27 47 -50 44 -50 -3
0 -27 23 -54 50 -27 28 -47 50 -44 50 3 0 27 -22 54 -50z"/>
</g>
</svg>
