<?xml version="1.0" standalone="no"?>
<!DOCTYPE svg PUBLIC "-//W3C//DTD SVG 20010904//EN"
 "http://www.w3.org/TR/2001/REC-SVG-20010904/DTD/svg10.dtd">
<svg version="1.0" xmlns="http://www.w3.org/2000/svg"
 width="315.000000pt" height="369.000000pt" viewBox="0 0 315.000000 369.000000"
 preserveAspectRatio="xMidYMid meet">

<g transform="translate(0.000000,369.000000) scale(0.100000,-0.100000)"
fill="#000000" stroke="none">
<path d="M1505 3493 c-11 -2 -36 -9 -56 -14 -20 -5 -58 -28 -84 -51 -61 -54
-95 -124 -95 -198 0 -78 39 -441 50 -468 6 -13 7 -21 2 -18 -4 2 -4 -25 0 -62
22 -180 35 -307 33 -310 -2 -2 -20 1 -42 7 -100 28 -217 -2 -290 -75 l-43 -44
-46 30 c-55 35 -140 54 -198 46 -101 -15 -195 -87 -238 -181 -22 -48 -23 -60
-23 -310 0 -336 25 -638 76 -922 84 -469 224 -677 524 -772 141 -45 227 -56
465 -55 239 0 332 15 469 72 216 91 394 286 546 597 183 374 222 669 120 881
-56 115 -163 211 -294 264 -61 25 -66 29 -64 56 4 49 42 401 85 794 51 468 52
506 15 582 -48 99 -134 152 -248 152 -113 0 -211 -64 -254 -168 -9 -20 -22
-103 -31 -184 -8 -81 -18 -158 -21 -172 -4 -15 -15 48 -29 158 -19 152 -27
190 -48 226 -30 51 -83 101 -130 120 -38 16 -122 27 -151 19z m74 -143 c39
-11 79 -45 91 -77 5 -11 21 -133 35 -270 14 -136 37 -351 51 -478 l25 -230 37
-40 c27 -29 29 -33 6 -12 -34 30 -43 28 -37 -8 10 -49 53 -68 105 -47 33 13
30 2 68 352 17 157 37 344 45 415 8 72 17 164 21 205 9 109 32 156 89 181 54
24 103 18 145 -18 51 -43 53 -69 20 -368 -28 -253 -66 -615 -92 -872 -7 -65
-16 -113 -23 -113 -5 0 -25 4 -44 10 l-34 10 29 -32 c28 -31 28 -31 -11 3 -36
31 -62 40 -228 83 -159 42 -195 48 -245 42 -31 -3 -66 -8 -78 -12 -20 -5 -22
0 -34 115 -8 67 -16 121 -19 121 -2 0 -16 -10 -30 -22 -22 -20 -22 -18 3 9
l28 31 -12 124 c-6 68 -14 130 -16 138 -3 8 -7 40 -9 70 -2 30 -15 160 -29
288 -33 299 -33 312 1 353 25 29 73 58 98 59 6 0 25 -4 44 -10z m791 -163 c0
-2 -10 -12 -22 -23 l-23 -19 19 23 c18 21 26 27 26 19z m-400 -400 c0 -2 -10
-12 -22 -23 l-23 -19 19 23 c18 21 26 27 26 19z m-80 -80 c0 -2 -10 -12 -22
-23 l-23 -19 19 23 c18 21 26 27 26 19z m-490 -32 c13 -14 21 -25 18 -25 -2 0
-15 11 -28 25 -13 14 -21 25 -18 25 2 0 15 -11 28 -25z m410 -48 c0 -2 -10
-12 -22 -23 l-23 -19 19 23 c18 21 26 27 26 19z m-492 -404 c61 -46 67 -64 67
-201 0 -70 -6 -151 -12 -179 -9 -39 -10 -65 -2 -100 6 -27 13 -86 15 -133 4
-75 2 -90 -18 -124 -30 -52 -79 -80 -137 -80 -56 0 -98 23 -131 72 l-25 36 0
316 0 317 29 37 c16 21 43 44 60 52 41 19 120 12 154 -13z m102 14 c0 -2 -12
-14 -27 -28 l-28 -24 24 28 c23 25 31 32 31 24z m-584 -56 c23 -10 52 -34 65
-52 23 -33 24 -39 27 -269 3 -232 3 -236 -20 -269 -39 -58 -72 -76 -137 -76
-43 1 -65 6 -89 24 -61 43 -66 65 -70 281 -5 230 4 282 52 329 53 52 107 62
172 32z m1114 -303 c146 -39 276 -72 290 -73 60 -5 184 -70 240 -126 128 -128
145 -342 49 -617 -40 -115 -154 -347 -219 -447 -69 -105 -207 -241 -287 -283
-134 -70 -284 -102 -478 -102 -446 1 -668 111 -769 382 -55 146 -104 389 -130
648 -7 74 -13 136 -11 137 1 2 23 -4 49 -13 67 -23 156 -15 225 21 43 21 55
24 62 13 5 -7 9 -16 9 -20 0 -4 17 -24 38 -44 46 -46 120 -81 188 -90 135 -16
277 83 315 221 8 29 14 35 27 30 9 -4 58 -18 107 -32 l91 -25 19 -65 c43 -151
138 -303 245 -392 102 -85 147 -99 188 -61 40 38 28 78 -37 122 -66 45 -117
95 -162 160 -40 59 -96 175 -87 183 2 3 38 -2 79 -11 133 -28 260 -2 335 71
54 51 59 92 18 124 -36 28 -57 26 -96 -8 -87 -75 -147 -75 -433 3 -115 32
-225 67 -242 79 -62 41 -82 136 -45 207 20 38 89 80 132 80 14 0 145 -32 290
-72z m250 -3 c13 -14 21 -25 18 -25 -2 0 -15 11 -28 25 -13 14 -21 25 -18 25
2 0 15 -11 28 -25z m-1190 -48 c0 -2 -10 -12 -22 -23 l-23 -19 19 23 c18 21
26 27 26 19z m-320 -320 c0 -2 -10 -12 -22 -23 l-23 -19 19 23 c18 21 26 27
26 19z m-80 -80 c0 -2 -10 -12 -22 -23 l-23 -19 19 23 c18 21 26 27 26 19z"/>
</g>
</svg>
